<?xml version="1.0" encoding="utf-8"?>
<!-- Generator: Adobe Illustrator 23.0.3, SVG Export Plug-In . SVG Version: 6.00 Build 0)  -->
<svg version="1.1" id="Layer_1" xmlns="http://www.w3.org/2000/svg" xmlns:xlink="http://www.w3.org/1999/xlink" x="0px" y="0px"
	 viewBox="0 0 860 900" style="enable-background:new 0 0 860 900;" xml:space="preserve">
<style type="text/css">
	.st0{fill:#191BA9;}
</style>
<g transform="translate(0.000000,900.000000) scale(0.100000,-0.100000)">
	<path class="st0" d="M3915,8583c-22-2-114-15-204-29c-869-134-1637-525-2254-1148C917,6861,559,6201,391,5440
		c-73-332-75-361-75-845c0-471-1-460,60-765c113-565,354-1119,681-1568c318-437,741-825,1190-1093c442-263,889-424,1457-526
		c149-27,157-27,596-27c420-1,453,1,580,23c477,81,835,197,1230,397c412,208,683,406,1021,743c393,394,659,785,863,1268
		c155,369,272,842,297,1203c15,208,6,741-15,875c-142,907-502,1644-1105,2259c-288,293-568,511-896,698c-480,273-1106,464-1625,497
		C4497,8589,4006,8591,3915,8583z M5514,6053c93-49,190-145,244-243l42-75V4601V3468l-37-71c-54-103-145-196-242-246l-79-41H4302
		H3162l-61,33c-117,62-185,131-253,254l-38,68v1135v1135l48,84c26,47,68,105,93,131c43,43,159,113,218,130c14,5,532,9,1150,9l1123,1
		L5514,6053z"/>
</g>
</svg>
